<svg id="Layer_1" data-name="Layer 1" xmlns="http://www.w3.org/2000/svg" viewBox="0 0 235.18 97.02"><defs><style>.cls-1,.cls-2,.cls-3{fill:#fff;stroke:#fff;}.cls-1,.cls-2{stroke-miterlimit:10;}.cls-2{stroke-width:0.72px;}</style></defs><rect class="cls-1" x="0.5" y="0.5" width="8.5" height="96.02"/><polygon class="cls-1" points="25.02 59.51 25.02 87.64 53.16 87.64 53.16 82.07 39.09 82.07 39.09 73.57 61.65 73.57 61.65 96.14 16.53 96.14 16.53 51.01 61.65 51.01 61.65 59.51 25.02 59.51"/><path class="cls-1" d="M153,56.25V60l8.49-5.63V50.62Zm0,15V75l8.49-5.63V65.62Zm10,.86-10,6.64V80.6h2.86l.8-.52,12-8Zm-10-8.35V67.5l8.49-5.63V58.12Zm0-7.51V60l8.49-5.63V50.62Zm0,0V60l8.49-5.63V50.62Zm0,0V60l8.49-5.63V50.62Zm0,0V60l8.49-5.63V50.62Zm42.66-20.77L182.86,44h5.66l9.63-6.39V35.48ZM153,71.25V75l8.49-5.63V65.62Zm36.63-16.77v3.74l8.49-5.63V48.84ZM174.37,72.11l-12,8-.79.52h5.65l.8-.52,12-8Zm10.61,8-.8.52h5.66l.79-.52,7.52-5V71.34Zm11.32,0-.8.52h2.65V78.85Zm-6.64-10.61v2.64h-4l-12,8-.8.52h5.66l.8-.52L198.15,67.6V63.84Zm0-7.49v3.74l8.49-5.63V56.34ZM163.05,72.11l-10,6.64V80.6h2.86l.8-.52,12-8ZM189.66,47v3.75l8.49-5.63V41.34ZM153,63.76V67.5l8.49-5.63V58.12Zm31.34-28.28L171.55,44h5.65L190,35.48Zm-11.32,0L153,48.75V52.5l8.49-5.63V44h4.37l12.82-8.5Zm-11.31,0L153,41.25V45l14.36-9.52ZM153,56.25V60l8.49-5.63V50.62Zm0-20.77v2l3.05-2Zm0,20.77V60l8.49-5.63V50.62Zm0,0V60l8.49-5.63V50.62Z" transform="translate(-136.5 -34.45)"/><line class="cls-2" x1="85.81" y1="48.51" x2="234.57" y2="48.51"/><path class="cls-3" d="M222.31,72.22v-24h5.91q4.72,0,7,1.8t2.25,5.58a6.93,6.93,0,0,1-2.27,5.49,9.29,9.29,0,0,1-6.3,2h-1.41v9.18ZM227.48,59h.74a4.43,4.43,0,0,0,3.05-.87,3.6,3.6,0,0,0,1-2.79,3.2,3.2,0,0,0-1-2.59,4.66,4.66,0,0,0-3.05-.81h-.74Z" transform="translate(-136.5 -34.45)"/><path class="cls-3" d="M268.4,48.19v15q0,4.89-2.57,7.31t-7.77,2.41q-5.26,0-7.85-2.41t-2.58-7.31v-15h5.11V62.34a6.64,6.64,0,0,0,1.31,4.47,5,5,0,0,0,3.93,1.5,5,5,0,0,0,4-1.51,6.48,6.48,0,0,0,1.35-4.46V48.19Z" transform="translate(-136.5 -34.45)"/><path class="cls-3" d="M297.83,72.22h-5.92L285.59,61V72.22h-5.14v-24h7.35c2.92,0,5.11.56,6.57,1.7A6.08,6.08,0,0,1,296.55,55a6.34,6.34,0,0,1-1.49,4.23,5.82,5.82,0,0,1-3.86,2.06ZM285.59,58.43h.77c2.08,0,3.45-.23,4.12-.68a2.65,2.65,0,0,0,1-2.37,2.83,2.83,0,0,0-1.08-2.52,7.58,7.58,0,0,0-4-.75h-.77Z" transform="translate(-136.5 -34.45)"/><path class="cls-3" d="M307.55,72.22v-24h5.91q4.73,0,7,1.8t2.26,5.58a6.9,6.9,0,0,1-2.28,5.49,9.25,9.25,0,0,1-6.29,2h-1.41v9.18ZM312.72,59h.74a4.45,4.45,0,0,0,3.05-.87,3.63,3.63,0,0,0,.95-2.79,3.23,3.23,0,0,0-.95-2.59,4.68,4.68,0,0,0-3.05-.81h-.74Z" transform="translate(-136.5 -34.45)"/><path class="cls-3" d="M333,72.22v-24h5.14V67.85h8.21v4.37Z" transform="translate(-136.5 -34.45)"/><path class="cls-3" d="M356.28,72.22v-24h14.15v4.33h-9v4.94h9v4.37h-9v6h9v4.37Z" transform="translate(-136.5 -34.45)"/><path class="cls-3" d="M237.62,113.16h-1.27a15,15,0,0,1-.2-3.16c-.7,1.36-2.25,3.39-6.37,3.39-5.68,0-8.58-4.32-8.58-9.93,0-5.9,3.1-10.33,8.89-10.33,4.26,0,7.08,2.23,7.7,5.87h-1.52c-.85-2.8-2.8-4.46-6.24-4.46-4.94,0-7.2,3.84-7.2,8.83,0,4.52,2.18,8.61,7,8.61s6.32-3.22,6.32-7.59v-.23h-6.37v-1.41h7.84Z" transform="translate(-136.5 -34.45)"/><path class="cls-3" d="M262.45,103.94v9.22H260.9V93.41H268c3.9,0,6,2.09,6,5.19a4.48,4.48,0,0,1-3.7,4.63c2,.48,3.39,1.81,3.39,5.17v.76c0,1.38-.11,3.24.25,4h-1.55a13.08,13.08,0,0,1-.28-4.12v-.5c0-3.25-1-4.6-4.74-4.6Zm0-1.41h4.77c3.47,0,5.08-1.3,5.08-3.9,0-2.43-1.58-3.81-4.65-3.81h-5.2Z" transform="translate(-136.5 -34.45)"/><path class="cls-3" d="M299.19,106.34l-2.51,6.82h-1.55l7.25-19.75h1.81l7.56,19.75h-1.66l-2.57-6.82Zm7.82-1.42c-2.2-5.87-3.33-8.69-3.72-10h0c-.48,1.49-1.75,5-3.53,10Z" transform="translate(-136.5 -34.45)"/><path class="cls-3" d="M335,93.41v19.75h-1.53V93.41Z" transform="translate(-136.5 -34.45)"/><path class="cls-3" d="M358.93,93.41h1.53v18.34h10.61l-.29,1.41H358.93Z" transform="translate(-136.5 -34.45)"/></svg>